<svg id="ChangeMakers-Wordmark-White-RGB" xmlns="http://www.w3.org/2000/svg" width="226.032" height="29.36" viewBox="0 0 226.032 29.36">
  <g id="Group_3" data-name="Group 3" transform="translate(47.151 2.432)">
    <path id="Path_14" data-name="Path 14" d="M351.69,34.389a8.989,8.989,0,0,1-7.526,3.568,10.013,10.013,0,0,1-10.4-10.4c0-6.161,4.516-10.342,10.509-10.342,2.7,0,5.631,1.059,7.08,3.067l-2.174,1.672a6.155,6.155,0,0,0-4.906-2.314c-4.572,0-7.5,3.6-7.5,7.917,0,4.432,2.871,7.944,7.415,7.944a6.244,6.244,0,0,0,5.3-2.62Z" transform="translate(-333.766 -17.218)" fill="#fff"/>
    <path id="Path_15" data-name="Path 15" d="M474.994,29.3a4.657,4.657,0,0,1,4.181-2.37c3.4,0,4.934,2.425,4.934,5.38v8.2h-2.62V33.2c0-2.146-.558-4.041-2.983-4.041-2.063,0-3.568,1.728-3.568,4.348v7h-2.62V20.771h2.62V29.3Z" transform="translate(-452.745 -20.269)" fill="#fff"/>
    <path id="Path_16" data-name="Path 16" d="M580.126,71.654c-2.592,0-5.881.278-5.881,2.509,0,1.561,1.394,2.062,2.7,2.062a3.6,3.6,0,0,0,3.819-3.875v-.7Zm.641-2.258c0-1.951-1.31-2.9-3.262-2.9a5.448,5.448,0,0,0-3.763,1.533l-1.394-1.672a7.885,7.885,0,0,1,5.408-1.979c3.791,0,5.519,2.258,5.519,5.185v5.77a14.579,14.579,0,0,0,.2,2.62H581.1a8.571,8.571,0,0,1-.223-1.9h-.084a5.051,5.051,0,0,1-4.432,2.23c-2.091,0-4.794-1.031-4.794-4.07,0-3.986,4.739-4.46,9.2-4.46Z" transform="translate(-537.974 -57.716)" fill="#fff"/>
    <path id="Path_17" data-name="Path 17" d="M678.408,64.741c.056.669.112,1.617.112,2.174h.083a4.79,4.79,0,0,1,4.293-2.536c3.4,0,4.934,2.425,4.934,5.38v8.2h-2.62V70.623c0-2.146-.586-4.042-3.01-4.042-2.063,0-3.541,1.728-3.541,4.349v7.024h-2.62V67.584c0-.7-.028-1.979-.111-2.843Z" transform="translate(-627.59 -57.716)" fill="#fff"/>
    <path id="Path_18" data-name="Path 18" d="M783.81,75.863a4.408,4.408,0,0,0,4.488-4.655,4.487,4.487,0,0,0-4.488-4.655,4.333,4.333,0,0,0-4.376,4.655,4.393,4.393,0,0,0,4.376,4.655m-5.185,4.349a6.7,6.7,0,0,0,4.823,2.146c3.484,0,4.655-2.146,4.655-4.878v-1.7h-.056a5.535,5.535,0,0,1-4.655,2.286,6.846,6.846,0,0,1-.028-13.687,5.5,5.5,0,0,1,4.767,2.481h.056V64.741h2.537V77.285c0,3.847-1.812,7.359-7.3,7.359a10.009,10.009,0,0,1-6.467-2.4Z" transform="translate(-714.152 -57.717)" fill="#fff"/>
    <path id="Path_19" data-name="Path 19" d="M903.78,70.175a3.516,3.516,0,0,0-3.707-3.735,4.1,4.1,0,0,0-4.153,3.735Zm2.62,1.951H895.92a4.223,4.223,0,0,0,4.293,4.014,4.54,4.54,0,0,0,3.847-2.007l1.84,1.477a6.812,6.812,0,0,1-5.686,2.7,6.97,6.97,0,0,1-.14-13.938c3.9,0,6.356,2.649,6.356,6.857,0,.279,0,.585-.028.892" transform="translate(-814.206 -57.715)" fill="#fff"/>
  </g>
  <path id="Path_20" data-name="Path 20" d="M1016.052,35.935h.056l5.826-15.164h4.292V40.507h-2.759V24h-.056l-6.551,16.5H1015.1L1008.581,24h-.056v16.5h-2.676V20.771h4.293Z" transform="translate(-863.753 -17.837)" fill="#fff"/>
  <path id="Path_21" data-name="Path 21" d="M1177.428,71.654c-2.592,0-5.881.278-5.881,2.509,0,1.561,1.394,2.062,2.7,2.062a3.6,3.6,0,0,0,3.819-3.875v-.7Zm.641-2.258c0-1.951-1.31-2.9-3.262-2.9a5.447,5.447,0,0,0-3.763,1.533l-1.394-1.672a7.885,7.885,0,0,1,5.408-1.979c3.791,0,5.519,2.258,5.519,5.185v5.77a14.569,14.569,0,0,0,.195,2.62H1178.4a8.571,8.571,0,0,1-.223-1.9h-.084a5.052,5.052,0,0,1-4.432,2.23c-2.091,0-4.794-1.031-4.794-4.07,0-3.986,4.739-4.46,9.2-4.46Z" transform="translate(-1003.744 -55.284)" fill="#fff"/>
  <path id="Path_22" data-name="Path 22" d="M1276.855,33.038h.083l5.547-5.742H1286l-6.189,5.993,6.718,7.22H1282.9l-5.965-6.857h-.083v6.857h-2.62V20.773h2.62Z" transform="translate(-1094.224 -17.838)" fill="#fff"/>
  <g id="Group_4" data-name="Group 4" transform="translate(191.867 9.095)">
    <path id="Path_23" data-name="Path 23" d="M1368.689,70.175a3.516,3.516,0,0,0-3.707-3.735,4.1,4.1,0,0,0-4.153,3.735Zm2.62,1.951h-10.481a4.224,4.224,0,0,0,4.293,4.014,4.539,4.539,0,0,0,3.846-2.007l1.84,1.477a6.812,6.812,0,0,1-5.686,2.7,6.97,6.97,0,0,1-.14-13.938c3.9,0,6.356,2.649,6.356,6.857,0,.279,0,.585-.028.892" transform="translate(-1358.152 -64.377)" fill="#fff"/>
    <path id="Path_24" data-name="Path 24" d="M1467.956,64.741h2.481c.056.669.111,1.673.111,2.23h.083a4.476,4.476,0,0,1,4.042-2.592,4.019,4.019,0,0,1,1.031.112l-.112,2.425a5.253,5.253,0,0,0-1.2-.139c-2.509,0-3.707,2.035-3.707,4.237v6.941h-2.62V67.584c0-.7-.028-1.979-.112-2.843" transform="translate(-1452.444 -64.378)" fill="#fff"/>
    <path id="Path_25" data-name="Path 25" d="M1533.69,68.086a3.606,3.606,0,0,0-3.067-1.645c-1.2,0-2.453.474-2.453,1.728,0,1.115,1,1.533,3.011,1.98,2.509.557,4.432,1.589,4.432,3.9,0,3.122-2.593,4.265-5.268,4.265a6.77,6.77,0,0,1-5.324-2.369l1.867-1.589a4.342,4.342,0,0,0,3.512,1.84c1.31,0,2.62-.474,2.62-1.923,0-1.227-1.2-1.672-3.456-2.2-1.756-.418-3.846-1.171-3.846-3.652,0-2.843,2.48-4.042,4.989-4.042a5.826,5.826,0,0,1,4.794,2.174Z" transform="translate(-1501.448 -64.378)" fill="#fff"/>
  </g>
  <path id="Path_26" data-name="Path 26" d="M19.016,0V10.286L10.33,4.2l-1.5,2.146,7.345,5.142H0v2.621H16.171L8.826,19.255l1.5,2.146,8.686-6.083V25.6h2.621V15.319L30.323,21.4l1.5-2.146-7.344-5.143H40.653V11.492H24.482l7.344-5.142L30.323,4.2l-8.686,6.083V0Z" fill="#fff"/>
</svg>
